<?xml version="1.0" encoding="UTF-8"?>
<svg width="88px" height="24px" viewBox="0 0 88 24" version="1.1" xmlns="http://www.w3.org/2000/svg" xmlns:xlink="http://www.w3.org/1999/xlink">
    <title>编组 87</title>
    <g id="页面-1" stroke="none" stroke-width="1" fill="none" fill-rule="evenodd">
        <g id="Apple-TV" transform="translate(-360.000000, -4350.000000)">
            <g id="编组-85" transform="translate(360.000000, 4350.000000)">
                <rect id="矩形" fill="#FFFFFF" opacity="0" x="0" y="0" width="87.476492" height="23.6422951"></rect>
                <g id="编组-84" transform="translate(0.000000, 0.656976)">
                    <g id="编组备份-6" transform="translate(0.000000, 0.484376)">
                        <path d="M30.0883112,0 L29.4268159,3.10885481 L22.2151715,3.10854121 L21.0244812,8.70463043 L27.9104577,8.7047902 L27.2489634,11.8136408 L20.3630729,11.8133271 L19.077718,17.8546039 L26.4452454,17.8547634 L25.7839243,20.9636115 L14.583073,20.9636115 L19.0432682,0 L30.0883112,0 Z M39.5564455,2.54019028e-13 L44.0166406,20.9636115 L40.02709,20.9636115 L36.5486895,4.01539337 L33.0704457,20.9636115 L29.0808939,20.9636115 L33.5410891,2.54019028e-13 L39.5564455,2.54019028e-13 Z M10.8705727,5.98632255e-13 L6.41037752,20.9636115 L2.57719936,20.9636115 L7.03739451,5.98632255e-13 L10.8705727,5.98632255e-13 Z M16.8400794,3.81472631e-13 L14.5318621,6.46268174 L11.593576,6.46268174 L12.9785064,3.81472631e-13 L16.8400794,3.81472631e-13 Z" id="形状结合" fill="#494F56"></path>
                        <polygon id="路径" fill="#006EFF" fill-rule="nonzero" points="5.2541583 0 2.94594104 6.46268174 0.00765494419 6.46268174 1.3925853 0"></polygon>
                    </g>
                    <path d="M49.3107712,8.43016695 C50.2946634,8.43016695 51.1499787,8.26432149 51.8767172,7.93263058 C52.6034558,7.60093966 53.1643488,7.11831074 53.5593965,6.48474381 C53.9544441,5.85117689 54.1519679,5.09089658 54.1519679,4.20390288 C54.1519679,3.36163156 53.9656247,2.6386199 53.5929382,2.03486789 C53.2202518,1.43111588 52.6724028,0.968984707 51.9493911,0.648474381 C51.2263794,0.327964055 50.3468395,0.167708892 49.3107712,0.167708892 L49.3107712,0.167708892 L47.0746526,0.167708892 L47.0746526,8.43016695 L49.3107712,8.43016695 Z M49.3331324,6.83134219 L48.8300057,6.83134219 L48.8300057,1.76653366 L49.3331324,1.76653366 C50.3244783,1.76653366 51.0698511,1.96219403 51.5692509,2.35351478 C52.0686508,2.74483553 52.3183507,3.36163156 52.3183507,4.20390288 C52.3183507,4.77038625 52.1972276,5.24928831 51.9549814,5.64060906 C51.7127352,6.0319298 51.3680003,6.32821551 50.9207766,6.52946618 C50.4735529,6.73071685 49.9443381,6.83134219 49.3331324,6.83134219 L49.3331324,6.83134219 Z M58.266426,8.59787585 C58.7807333,8.59787585 59.2447279,8.52333856 59.6584098,8.37426399 C60.0720918,8.22518942 60.4429147,7.9978507 60.7708788,7.69224783 L60.7708788,7.69224783 L59.9546955,6.52946618 C59.7161762,6.73071685 59.47393,6.87792799 59.227957,6.9710996 C58.981984,7.0642712 58.7173766,7.11085701 58.4341349,7.11085701 C57.5695024,7.11085701 57.058922,6.7158094 56.9023937,5.92571417 L56.9023937,5.92571417 L61.1174772,5.92571417 C61.1249309,5.85117689 61.1286578,5.73937096 61.1286578,5.59029639 C61.1286578,4.87473845 61.0038078,4.27098644 60.7541079,3.77904036 C60.504408,3.28709428 60.1615365,2.91813472 59.7254934,2.67216167 C59.2894503,2.42618863 58.7844602,2.30320211 58.2105231,2.30320211 C57.6664009,2.30320211 57.1595473,2.42618863 56.6899624,2.67216167 C56.2203775,2.91813472 55.8439643,3.28150398 55.5607226,3.76226947 C55.2774809,4.24303496 55.13586,4.81510862 55.13586,5.47849046 C55.13586,6.11205739 55.2663003,6.6636333 55.5271808,7.13321819 C55.7880613,7.60280309 56.1551574,7.96430892 56.6284692,8.21773569 C57.1017809,8.47116246 57.6477666,8.59787585 58.266426,8.59787585 Z M59.3844853,4.83001608 L56.9135743,4.83001608 C56.9955653,4.47223711 57.1483667,4.19085886 57.3719786,3.98588133 C57.5955905,3.78090379 57.8676515,3.67841502 58.1881619,3.67841502 C58.5310334,3.67841502 58.8030945,3.78090379 59.0043451,3.98588133 C59.2055958,4.19085886 59.3323092,4.47223711 59.3844853,4.83001608 L59.3844853,4.83001608 Z M64.3263073,8.59787585 C64.773531,8.59787585 65.1853495,8.51774826 65.5617628,8.3574931 C65.9381761,8.19723794 66.2400521,7.96803579 66.4673908,7.66988665 C66.6947295,7.3717375 66.8083989,7.0176854 66.8083989,6.60773033 C66.8083989,6.19777526 66.7059101,5.86794778 66.5009326,5.61824787 C66.2959551,5.36854797 66.0555723,5.18779505 65.7797844,5.07598912 C65.5039964,4.96418319 65.1536712,4.85610413 64.7288086,4.75175193 C64.4753819,4.68466837 64.2834484,4.63062884 64.1530081,4.58963334 C64.0225679,4.54863783 63.9126254,4.49273486 63.8231806,4.42192444 C63.7337359,4.35111402 63.6890135,4.26353271 63.6890135,4.15918051 C63.6890135,4.01755967 63.7598239,3.90389031 63.9014448,3.81817243 C64.0430656,3.73245456 64.2331357,3.68959562 64.471655,3.68959562 C64.7548967,3.68959562 65.0120503,3.73990828 65.2431159,3.84053362 C65.4741815,3.94115895 65.6940665,4.08464323 65.9027709,4.27098644 L65.9027709,4.27098644 L66.7413153,3.15292716 C66.1375633,2.60135125 65.3661024,2.3255633 64.4269326,2.3255633 C63.9573477,2.3255633 63.5362121,2.40569088 63.1635257,2.56594604 C62.7908392,2.72620121 62.4982804,2.95353993 62.2858491,3.2479622 C62.0734179,3.54238448 61.9672022,3.88339256 61.9672022,4.27098644 C61.9672022,4.67348778 62.0641007,4.99399811 62.2578976,5.23251742 C62.4516946,5.47103673 62.6808967,5.64433592 62.9455041,5.75241498 C63.2101115,5.86049405 63.5511195,5.96670968 63.9685283,6.07106188 C64.2294088,6.13069171 64.4325229,6.18473124 64.5778706,6.23318047 C64.7232183,6.28162971 64.8443414,6.34871327 64.9412399,6.43443114 C65.0381384,6.52014902 65.0865876,6.62636465 65.0865876,6.75307804 C65.0865876,6.90215261 65.0176406,7.0176854 64.8797466,7.09967641 C64.7418527,7.18166743 64.5499192,7.22266293 64.3039461,7.22266293 C63.9908895,7.22266293 63.7020575,7.16489654 63.4374502,7.04936375 C63.1728428,6.93383095 62.906372,6.74562431 62.6380378,6.48474381 L62.6380378,6.48474381 L61.7100486,7.5916225 C62.0603738,7.91958655 62.4386506,8.16928646 62.8448788,8.34072221 C63.251107,8.51215797 63.7449165,8.59787585 64.3263073,8.59787585 Z M68.7426415,1.87833959 C68.9364384,1.87833959 69.111601,1.83920751 69.2681293,1.76094336 C69.4246576,1.68267921 69.5476441,1.57273672 69.6370889,1.43111588 C69.7265336,1.28949503 69.771256,1.12551301 69.771256,0.939169793 C69.771256,0.75282658 69.7265336,0.588844553 69.6370889,0.447223711 C69.5476441,0.305602869 69.4246576,0.195660374 69.2681293,0.117396224 C69.111601,0.0391320747 68.9364384,0 68.7426415,0 C68.5488445,0 68.3755453,0.0391320747 68.2227439,0.117396224 C68.0699425,0.195660374 67.9488194,0.305602869 67.8593746,0.447223711 C67.7699299,0.588844553 67.7252075,0.75282658 67.7252075,0.939169793 C67.7252075,1.12551301 67.7699299,1.28949503 67.8593746,1.43111588 C67.9488194,1.57273672 68.0699425,1.68267921 68.2227439,1.76094336 C68.3755453,1.83920751 68.5488445,1.87833959 68.7426415,1.87833959 Z M69.6035471,8.43016695 L69.6035471,2.49327219 L67.904097,2.49327219 L67.904097,8.43016695 L69.6035471,8.43016695 Z M73.7627276,10.901078 C74.4186557,10.901078 74.9925928,10.7911355 75.4845389,10.5712505 C75.976485,10.3513655 76.3622154,10.0066305 76.6417303,9.53704564 C76.9212451,9.06746074 77.0610025,8.47116246 77.0610025,7.7481508 L77.0610025,7.7481508 L77.0610025,2.49327219 L75.4398165,2.49327219 L75.3839136,3.20883013 C75.1826629,2.92558844 74.932963,2.70570345 74.6348138,2.54917515 C74.3366647,2.39264685 73.9937932,2.31438271 73.6061993,2.31438271 C73.0769846,2.31438271 72.6055363,2.44854982 72.1918543,2.71688405 C71.7781724,2.98521827 71.4557986,3.34858754 71.224733,3.80699184 C70.9936675,4.26539614 70.8781347,4.77411312 70.8781347,5.33314276 C70.8781347,5.88471867 70.9843503,6.38784534 71.1967816,6.84252278 C71.4092128,7.29720022 71.7185426,7.65684262 72.1247708,7.92144998 C72.530999,8.18605735 73.0173548,8.31836103 73.5838381,8.31836103 C73.9490708,8.31836103 74.2807617,8.24009688 74.5789109,8.08356858 C74.87706,7.92704028 75.1342137,7.70715529 75.3503718,7.4239136 L75.3503718,7.4239136 L75.3503718,7.84877613 C75.3503718,8.40780577 75.2087509,8.80471681 74.9255093,9.03950926 C74.6422676,9.27430171 74.2434931,9.39169793 73.7291858,9.39169793 C73.2148786,9.39169793 72.7229325,9.27616514 72.2533476,9.04509956 L72.2533476,9.04509956 L71.7614015,10.4985766 C72.4024222,10.7669108 73.0695309,10.901078 73.7627276,10.901078 Z M73.9304365,6.85370337 C73.6770097,6.85370337 73.4533979,6.79221011 73.2596009,6.66922359 C73.065804,6.54623707 72.9130026,6.36921102 72.8011966,6.13814544 C72.6893907,5.90707985 72.6334877,5.63501876 72.6334877,5.32196216 C72.6334877,5.00890556 72.6931176,4.73870791 72.8123772,4.51136919 C72.9316369,4.28403047 73.0974823,4.11073128 73.3099136,3.99147162 C73.5223449,3.87221197 73.7627276,3.81258214 74.0310618,3.81258214 C74.4261094,3.81258214 74.7447563,3.93929552 74.9870025,4.19272229 C75.2292487,4.44614906 75.3503718,4.82256235 75.3503718,5.32196216 C75.3503718,5.64247249 75.2870151,5.91826044 75.1603017,6.14932603 C75.0335883,6.38039161 74.8621526,6.55555423 74.6459944,6.67481389 C74.4298363,6.79407354 74.191317,6.85370337 73.9304365,6.85370337 Z M80.4151803,8.43016695 L80.4151803,5.28842038 C80.4151803,4.80392803 80.5213959,4.44801249 80.7338272,4.22067377 C80.9462585,3.99333505 81.2276367,3.87966569 81.577962,3.87966569 C81.9208335,3.87966569 82.1798505,3.9784276 82.3550132,4.1759514 C82.5301758,4.37347521 82.6177571,4.69584897 82.6177571,5.14307268 L82.6177571,5.14307268 L82.6177571,8.43016695 L84.3283878,8.43016695 L84.3283878,4.86355786 C84.3283878,4.31198195 84.2426699,3.84426048 84.0712342,3.46039346 C83.8997984,3.07652645 83.6594157,2.7895579 83.3500859,2.59948782 C83.0407562,2.40941774 82.6811138,2.31438271 82.2711587,2.31438271 C81.466156,2.31438271 80.8400428,2.6274393 80.3928191,3.2535525 L80.3928191,3.2535525 L80.3257356,2.49327219 L78.7045496,2.49327219 L78.7045496,8.43016695 L80.4151803,8.43016695 Z" id="Design" fill="#494F56"></path>
                </g>
            </g>
        </g>
    </g>
</svg>