<?xml version="1.0" encoding="UTF-8"?>
<svg width="108px" height="30px" viewBox="0 0 108 30" version="1.1" xmlns="http://www.w3.org/2000/svg" xmlns:xlink="http://www.w3.org/1999/xlink">
    <title>编组 87</title>
    <g id="页面-1" stroke="none" stroke-width="1" fill="none" fill-rule="evenodd">
        <g id="Apple-TV" transform="translate(-48.000000, -32.000000)">
            <g id="编组-85" transform="translate(48.000000, 32.000000)">
                <rect id="矩形" fill="#FFFFFF" opacity="0" x="0" y="0" width="107.357513" height="29.015544"></rect>
                <g id="编组-84" transform="translate(0.000000, 0.806289)">
                    <g id="编组备份-6" transform="translate(0.000000, 0.594461)">
                        <path d="M36.9265637,0 L36.1147287,3.81541272 L27.2640741,3.81502785 L25.8027723,10.6829555 L34.2537436,10.6831516 L33.4419097,14.4985592 L24.991044,14.4981741 L23.413563,21.9124684 L32.4555284,21.9126642 L31.6439071,25.7280686 L17.8974078,25.7280686 L23.3712837,0 L36.9265637,0 Z M48.5465467,3.12638804e-13 L54.0204226,25.7280686 L49.1241559,25.7280686 L44.8552099,4.92798277 L40.586456,25.7280686 L35.690188,25.7280686 L41.1640639,3.12638804e-13 L48.5465467,3.12638804e-13 Z M13.3411574,7.33635375e-13 L7.8672815,25.7280686 L3.16292648,25.7280686 L8.63680235,7.33635375e-13 L13.3411574,7.33635375e-13 Z M20.6673702,4.68070027e-13 L17.8345581,7.93147304 L14.2284797,7.93147304 L15.9281669,4.68070027e-13 L20.6673702,4.68070027e-13 Z" id="形状结合" fill="#FFFFFF"></path>
                        <polygon id="路径" fill="#006EFF" fill-rule="nonzero" points="6.44828519 0 3.6154731 7.93147304 0.00939470424 7.93147304 1.70908196 0"></polygon>
                    </g>
                    <path d="M60.5177647,10.346114 C61.7252687,10.346114 62.7749739,10.1425764 63.6668803,9.73550116 C64.5587866,9.32842594 65.2471554,8.73610863 65.7319866,7.95854922 C66.2168177,7.18098982 66.4592333,6.24791853 66.4592333,5.15933536 C66.4592333,4.12563874 66.2305394,3.23830624 65.7731515,2.49733786 C65.3157636,1.75636948 64.6434034,1.1892085 63.7560709,0.795854922 C62.8687384,0.40250134 61.789303,0.205824549 60.5177647,0.205824549 L60.5177647,0.205824549 L57.7734373,0.205824549 L57.7734373,10.346114 L60.5177647,10.346114 Z M60.5452079,8.38391996 L59.9277343,8.38391996 L59.9277343,2.16801858 L60.5452079,2.16801858 C61.7618597,2.16801858 62.6766355,2.40814722 63.2895353,2.8884045 C63.902435,3.36866178 64.2088849,4.12563874 64.2088849,5.15933536 C64.2088849,5.85456495 64.0602338,6.44230838 63.7629317,6.92256566 C63.4656296,7.40282294 63.0425458,7.76644631 62.4936803,8.01343577 C61.9448149,8.26042523 61.2953241,8.38391996 60.5452079,8.38391996 L60.5452079,8.38391996 Z M71.5087956,10.5519385 C72.1399909,10.5519385 72.7094388,10.460461 73.2171393,10.2775058 C73.7248399,10.0945507 74.1799408,9.81554404 74.5824422,9.44048597 L74.5824422,9.44048597 L73.5807627,8.01343577 C73.2880344,8.26042523 72.9907323,8.44109344 72.6888563,8.55544041 C72.3869803,8.66978739 72.0622349,8.72696087 71.7146201,8.72696087 C70.6534802,8.72696087 70.0268588,8.24212971 69.8347559,7.27246739 L69.8347559,7.27246739 L75.0078129,7.27246739 C75.0169607,7.18098982 75.0215345,7.04377345 75.0215345,6.8608183 C75.0215345,5.98263355 74.8683096,5.24166518 74.5618597,4.63791317 C74.2554098,4.03416116 73.834613,3.58134715 73.2994691,3.27947115 C72.7643253,2.97759514 72.1445647,2.82665714 71.4401874,2.82665714 C70.7724011,2.82665714 70.1503535,2.97759514 69.5740448,3.27947115 C68.9977361,3.58134715 68.5357743,4.02730034 68.1881595,4.61733071 C67.8405447,5.20736109 67.6667373,5.90945149 67.6667373,6.72360193 C67.6667373,7.50116134 67.8268231,8.17809541 68.1469946,8.75440415 C68.4671661,9.33071288 68.9176932,9.77437913 69.4985758,10.0854029 C70.0794584,10.3964267 70.7495317,10.5519385 71.5087956,10.5519385 Z M72.8809592,5.92774701 L69.8484775,5.92774701 C69.9491029,5.48865464 70.1366319,5.14332678 70.4110646,4.89176344 C70.6854974,4.64020011 71.0193905,4.51441844 71.4127441,4.51441844 C71.833541,4.51441844 72.1674341,4.64020011 72.4144236,4.89176344 C72.661413,5.14332678 72.8169249,5.48865464 72.8809592,5.92774701 L72.8809592,5.92774701 Z M78.9459226,10.5519385 C79.4947881,10.5519385 80.0002017,10.4536001 80.4621634,10.2569234 C80.9241252,10.0602466 81.2946094,9.77895301 81.573616,9.4130427 C81.8526226,9.04713239 81.9921259,8.6126139 81.9921259,8.10948723 C81.9921259,7.60636055 81.8663443,7.20157227 81.6147809,6.89512239 C81.3632176,6.5886725 81.0682024,6.36683938 80.7297354,6.22962301 C80.3912683,6.09240665 79.9613237,5.95976416 79.4399015,5.83169555 C79.1288778,5.74936573 78.893323,5.68304449 78.7332372,5.63273182 C78.5731515,5.58241915 78.438222,5.51381097 78.328449,5.42690727 C78.2186759,5.34000357 78.1637893,5.23251742 78.1637893,5.10444881 C78.1637893,4.93064142 78.250693,4.79113811 78.4245004,4.6859389 C78.5983078,4.58073968 78.8315756,4.52814008 79.1243039,4.52814008 C79.4719187,4.52814008 79.7875163,4.58988744 80.0710968,4.71338217 C80.3546773,4.8368769 80.6245361,5.01297123 80.8806734,5.24166518 L80.8806734,5.24166518 L81.9097961,3.86950152 C81.1688277,3.19256745 80.2220348,2.85410041 79.0694173,2.85410041 C78.4931086,2.85410041 77.9762603,2.95243881 77.5188724,3.1491156 C77.0614845,3.34579239 76.702435,3.624799 76.4417239,3.98613543 C76.1810128,4.34747186 76.0506573,4.76598178 76.0506573,5.24166518 C76.0506573,5.7356441 76.1695781,6.12899768 76.4074198,6.42172592 C76.6452615,6.71445417 76.9265551,6.92713954 77.2513005,7.05978203 C77.5760459,7.19242451 77.9945558,7.32278006 78.5068302,7.45084867 C78.8270018,7.52403073 79.0762782,7.59035197 79.2546594,7.6498124 C79.4330407,7.70927282 79.5816918,7.79160264 79.7006126,7.89680186 C79.8195335,8.00200107 79.8789939,8.13235662 79.8789939,8.2878685 C79.8789939,8.47082366 79.7943771,8.6126139 79.6251436,8.71323924 C79.4559101,8.81386457 79.2203553,8.86417724 78.9184793,8.86417724 C78.5342735,8.86417724 78.1797979,8.79328212 77.8550525,8.65149187 C77.5303071,8.50970163 77.2032748,8.27872074 76.8739555,7.95854922 L76.8739555,7.95854922 L75.7350596,9.31699125 C76.1650043,9.71949259 76.629253,10.0259425 77.1278058,10.2363409 C77.6263586,10.4467393 78.2323975,10.5519385 78.9459226,10.5519385 Z M84.3659691,2.30523495 C84.6038108,2.30523495 84.8187831,2.25720922 85.010886,2.16115776 C85.2029889,2.06510631 85.3539269,1.93017688 85.4637,1.75636948 C85.5734731,1.58256209 85.6283596,1.38131142 85.6283596,1.15261747 C85.6283596,0.92392353 85.5734731,0.72267286 85.4637,0.548865464 C85.3539269,0.375058067 85.2029889,0.24012864 85.010886,0.144077184 C84.8187831,0.0480257281 84.6038108,0 84.3659691,0 C84.1281274,0 83.915442,0.0480257281 83.727913,0.144077184 C83.5403839,0.24012864 83.3917329,0.375058067 83.2819598,0.548865464 C83.1721867,0.72267286 83.1173001,0.92392353 83.1173001,1.15261747 C83.1173001,1.38131142 83.1721867,1.58256209 83.2819598,1.75636948 C83.3917329,1.93017688 83.5403839,2.06510631 83.727913,2.16115776 C83.915442,2.25720922 84.1281274,2.30523495 84.3659691,2.30523495 Z M85.4225351,10.346114 L85.4225351,3.05992496 L83.3368463,3.05992496 L83.3368463,10.346114 L85.4225351,10.346114 Z M90.5269839,13.3785957 C91.3319866,13.3785957 92.0363639,13.2436662 92.6401159,12.9738074 C93.2438679,12.7039485 93.7172644,12.2808647 94.0603053,11.704556 C94.4033462,11.1282473 94.5748667,10.3964267 94.5748667,9.50909416 L94.5748667,9.50909416 L94.5748667,3.05992496 L92.5852294,3.05992496 L92.5166212,3.9381097 C92.2696317,3.59049491 91.9631818,3.32063606 91.5972715,3.12853314 C91.2313612,2.93643023 90.8105644,2.84037877 90.334881,2.84037877 C89.6853902,2.84037877 89.1067945,3.00503841 88.5990939,3.33435769 C88.0913934,3.66367697 87.6957529,4.10963016 87.4121724,4.67221726 C87.1285919,5.23480436 86.9868016,5.85913882 86.9868016,6.54522065 C86.9868016,7.22215473 87.1171572,7.83962837 87.3778683,8.39764159 C87.6385794,8.95565482 88.0182113,9.39703413 88.5167641,9.72177952 C89.0153169,10.0465249 89.6122081,10.2088976 90.3074377,10.2088976 C90.7556778,10.2088976 91.162753,10.1128462 91.5286634,9.92074326 C91.8945737,9.72864034 92.2101713,9.45878149 92.4754563,9.1111667 L92.4754563,9.1111667 L92.4754563,9.63258889 C92.4754563,10.3186707 92.3016489,10.8057888 91.9540341,11.0939432 C91.6064193,11.3820976 91.1170143,11.5261747 90.485819,11.5261747 C89.8546237,11.5261747 89.2508717,11.3843845 88.6745629,11.100804 L88.6745629,11.100804 L88.0708109,12.8846168 C88.8575181,13.213936 89.6762424,13.3785957 90.5269839,13.3785957 Z M90.7328084,8.41136323 C90.4217847,8.41136323 90.1473519,8.33589423 89.9095102,8.18495623 C89.6716685,8.03401822 89.4841395,7.81675898 89.3469231,7.53317849 C89.2097068,7.249598 89.1410986,6.91570484 89.1410986,6.53149902 C89.1410986,6.14729319 89.2142807,5.81568698 89.3606448,5.53668036 C89.5070089,5.25767375 89.7105465,5.04498839 89.9712576,4.89862426 C90.2319687,4.75226014 90.5269839,4.67907808 90.8563032,4.67907808 C91.3411343,4.67907808 91.732201,4.83458996 92.0295031,5.14561372 C92.3268052,5.45663748 92.4754563,5.91859925 92.4754563,6.53149902 C92.4754563,6.9248526 92.3977003,7.26331964 92.2421885,7.54690013 C92.0866766,7.83048061 91.8762782,8.04545292 91.6109932,8.19181704 C91.3457082,8.33818117 91.05298,8.41136323 90.7328084,8.41136323 Z M98.6913577,10.346114 L98.6913577,6.49033411 C98.6913577,5.89572986 98.8217132,5.45892442 99.0824243,5.17991781 C99.3431354,4.9009112 99.6884632,4.7614079 100.118408,4.7614079 C100.539205,4.7614079 100.857089,4.88261569 101.072062,5.12503127 C101.287034,5.36744685 101.39452,5.76308737 101.39452,6.31195283 L101.39452,6.31195283 L101.39452,10.346114 L103.49393,10.346114 L103.49393,5.96891192 C103.49393,5.29197785 103.388731,4.71795605 103.178333,4.24684652 C102.967934,3.775737 102.672919,3.42354833 102.293287,3.19028051 C101.913655,2.95701269 101.472276,2.84037877 100.969149,2.84037877 C99.9811915,2.84037877 99.2127798,3.2245846 98.6639144,3.99299625 L98.6639144,3.99299625 L98.5815846,3.05992496 L96.5919473,3.05992496 L96.5919473,10.346114 L98.6913577,10.346114 Z" id="Design" fill="#FFFFFF" fill-rule="nonzero"></path>
                </g>
            </g>
        </g>
    </g>
</svg>