<?xml version="1.0" encoding="UTF-8"?>
<svg width="830px" height="1704px" viewBox="0 0 830 1704" version="1.1" xmlns="http://www.w3.org/2000/svg" xmlns:xlink="http://www.w3.org/1999/xlink">
    <!-- Generator: Sketch 59.1 (86144) - https://sketch.com -->
    <title>编组 7</title>
    <desc>Created with Sketch.</desc>
    <defs>
        <path d="M340.56824,64.1725172 C344.319224,64.1725172 347.359997,61.1317439 347.359997,57.3807599 C347.359997,53.6297758 344.319224,50.5890025 340.56824,50.5890025 C336.817256,50.5890025 333.776482,53.6297758 333.776482,57.3807599 C333.776482,61.1317439 336.817256,64.1725172 340.56824,64.1725172 Z M505.500667,71.3479904 C497.786779,71.3479904 491.533437,65.0946483 491.533437,57.3807599 C491.533437,49.6668714 497.786779,43.4135293 505.500667,43.4135293 C513.214556,43.4135293 519.467898,49.6668714 519.467898,57.3807599 C519.467898,65.0946483 513.214556,71.3479904 505.500667,71.3479904 Z M459.221565,52.4135293 C462.160004,52.4135293 464.542415,54.7959398 464.542415,57.734379 C464.542415,60.6728183 462.160004,63.0552288 459.221565,63.0552288 L370.097332,63.0552288 C367.158893,63.0552288 364.776482,60.6728183 364.776482,57.734379 C364.776482,54.7959398 367.158893,52.4135293 370.097332,52.4135293 L459.221565,52.4135293 Z" id="path-1"></path>
    </defs>
    <g id="20191030-购买" stroke="none" stroke-width="1" fill="none" fill-rule="evenodd">
        <g id="画板" transform="translate(-307.000000, -278.000000)">
            <g id="编组-7" transform="translate(307.000000, 278.000000)">
                <path d="M706.298077,0 C772.304939,0 826.009615,53.622816 826.009615,119.721708 L826.009615,383.109465 C828.213444,383.109465 830,384.896173 830,387.100189 L830,586.636368 C830,588.773596 828.32008,590.518423 826.208776,590.622208 L826.009615,590.627092 L826.009615,1583.87 C826.009615,1649.96657 772.303903,1704 706.298077,1704 L123.50637,1704 C57.4995141,1704 3.99038462,1649.96889 3.99038462,1583.87 L3.99038462,626.543604 C1.78655605,626.543604 0,624.756896 0,622.552881 L0,502.831173 C0,500.693945 1.67992047,498.949118 3.79122418,498.845333 L3.99038462,498.840449 L3.99038462,470.905384 C1.78655605,470.905384 0,469.118676 0,466.91466 L0,347.192953 C0,345.055725 1.67992047,343.310898 3.79122418,343.207113 L3.99038462,343.202229 L3.99038462,291.322822 C1.78655605,291.322822 0,289.536115 0,287.332099 L0,223.480521 C0,221.343294 1.67992047,219.598466 3.79122418,219.494682 L3.99038462,219.489798 L3.99038462,119.721708 C3.99038462,53.6251365 57.5005492,0 123.50637,0 L706.298077,0 Z M193.590426,40 L117.792553,40 C75.2585488,40 40.6973917,74.1425433 40.010422,116.521186 L40,117.807882 L40,1586.19212 C40,1628.7345 74.1358171,1663.30247 116.506111,1664 L117.792553,1664 L712.207447,1664 C754.741451,1664 789.302608,1629.85746 789.989578,1587.47881 L790,1586.19212 L790,117.807882 C790,75.2654963 755.864183,40.6975291 713.493889,40 L712.207447,40 L632.420213,40 C626.537595,40 622.582614,43.8560348 622.450237,49.6727653 L622.446809,49.9753695 L622.446809,51.9704433 C622.446809,78.1503729 601.440152,99.422968 575.366125,99.845802 L574.574468,99.8522167 L251.43617,99.8522167 C225.261398,99.8522167 203.992994,78.8414209 203.570243,52.762256 L203.56383,51.9704433 L203.56383,49.9753695 C203.56383,44.0915922 199.708555,40.1358324 193.89297,40 L193.590426,40 Z" id="形状" fill="#202124" fill-rule="nonzero"></path>
                <mask id="mask-2" fill="white">
                    <use xlink:href="#path-1"></use>
                </mask>
                <use id="Combined-Shape" fill="#444444" fill-rule="nonzero" xlink:href="#path-1"></use>
                <path d="M505.500667,65.3807599 C509.918945,65.3807599 513.500667,61.7990379 513.500667,57.3807599 C513.500667,52.9624819 509.918945,49.3807599 505.500667,49.3807599 C501.082389,49.3807599 497.500667,52.9624819 497.500667,57.3807599 C497.500667,61.7990379 501.082389,65.3807599 505.500667,65.3807599 Z" id="Camera" fill="#242D4E" fill-rule="nonzero" mask="url(#mask-2)"></path>
            </g>
        </g>
    </g>
</svg>