<?xml version="1.0" encoding="utf-8"?>
<!-- Generator: Adobe Illustrator 23.0.1, SVG Export Plug-In . SVG Version: 6.00 Build 0)  -->
<!DOCTYPE svg PUBLIC "-//W3C//DTD SVG 1.1//EN" "http://www.w3.org/Graphics/SVG/1.1/DTD/svg11.dtd" [
	<!ENTITY ns_extend "http://ns.adobe.com/Extensibility/1.0/">
	<!ENTITY ns_ai "http://ns.adobe.com/AdobeIllustrator/10.0/">
	<!ENTITY ns_graphs "http://ns.adobe.com/Graphs/1.0/">
	<!ENTITY ns_vars "http://ns.adobe.com/Variables/1.0/">
	<!ENTITY ns_imrep "http://ns.adobe.com/ImageReplacement/1.0/">
	<!ENTITY ns_sfw "http://ns.adobe.com/SaveForWeb/1.0/">
	<!ENTITY ns_custom "http://ns.adobe.com/GenericCustomNamespace/1.0/">
	<!ENTITY ns_adobe_xpath "http://ns.adobe.com/XPath/1.0/">
]>
<svg version="1.1" id="图层_1" xmlns:x="&ns_extend;" xmlns:i="&ns_ai;" xmlns:graph="&ns_graphs;"
	 xmlns="http://www.w3.org/2000/svg" xmlns:xlink="http://www.w3.org/1999/xlink" x="0px" y="0px" width="280px" height="120px"
	 viewBox="0 0 280 120" style="enable-background:new 0 0 280 120;" xml:space="preserve">
<style type="text/css">
	.st0{fill:#FFFFFF;}
	.st1{fill:#006EFF;}
</style>
<metadata>
	<sfw  xmlns="&ns_sfw;">
		<slices></slices>
		<sliceSourceBounds  bottomLeftOrigin="true" height="115.9" width="272" x="44" y="68.6"></sliceSourceBounds>
	</sfw>
</metadata>
<g>
	<path class="st0" d="M161,42.4v47h-15.6v-47h-12.9V29.1h41.4v13.3C173.9,42.4,161,42.4,161,42.4z"/>
	<path class="st0" d="M191,71.3c0,6.2,2.9,9.4,8.8,9.4c3.1,0,5.5-1.3,7.1-3.8h14C218.1,86.3,211,91,199.7,91c-3.5,0-6.6-0.5-9.5-1.6
		c-2.9-1-5.3-2.5-7.4-4.4c-2.1-1.9-3.6-4.2-4.8-6.9s-1.7-5.7-1.7-9c0-3.4,0.5-6.5,1.6-9.2s2.6-5.1,4.6-7s4.4-3.4,7.2-4.4
		s6-1.6,9.5-1.6s6.6,0.5,9.4,1.6c2.8,1,5.1,2.5,7,4.5s3.4,4.4,4.4,7.2c1,2.9,1.5,6.1,1.5,9.6v1.5L191,71.3L191,71.3z M207.9,62.9
		c-0.5-2-1.5-3.7-3-4.9s-3.3-1.8-5.4-1.8c-2.2,0-4.1,0.6-5.5,1.8c-1.4,1.2-2.3,2.8-2.7,5h16.6V62.9z"/>
	<path class="st0" d="M261.4,48.4H276v41h-14.6v-4.6c-3.1,3.9-7.3,5.8-12.6,5.8c-3,0-5.7-0.5-8.2-1.6s-4.7-2.6-6.6-4.6
		s-3.3-4.3-4.4-7c-1-2.7-1.6-5.6-1.6-8.7c0-2.9,0.5-5.7,1.5-8.4c1-2.6,2.4-4.9,4.2-6.9c1.8-2,4-3.5,6.5-4.7c2.5-1.1,5.3-1.7,8.3-1.7
		c5.1,0,9.4,1.8,12.7,5.4v-4H261.4z M243.1,68.8c0,1.3,0.2,2.6,0.7,3.7c0.5,1.1,1.1,2.1,2,3c0.8,0.9,1.8,1.5,3,2
		c1.1,0.5,2.4,0.7,3.7,0.7c1.3,0,2.5-0.2,3.6-0.7s2.1-1.1,3-2c0.8-0.9,1.5-1.8,2-3c0.5-1.1,0.8-2.3,0.8-3.6s-0.3-2.5-0.8-3.6
		s-1.2-2.1-2-3s-1.8-1.5-3-2c-1.1-0.5-2.4-0.7-3.6-0.7c-1.3,0-2.6,0.2-3.7,0.7s-2.1,1.1-3,2c-0.8,0.9-1.5,1.8-2,2.9
		C243.4,66.3,243.1,67.5,243.1,68.8z"/>
</g>
<g>
	<path class="st1" d="M63.1,32.1c3.5,0,6.7-1.2,9.2-3.2c0,0,0.1,0,0.1-0.1c0.3-0.3,0.6-0.5,0.9-0.8l0.1-0.1c0.3-0.3,0.6-0.6,0.9-0.9
		l0.1-0.1c0.3-0.3,0.5-0.6,0.8-1c0,0,0-0.1,0.1-0.1c0.3-0.4,0.5-0.7,0.7-1.1c0,0,0,0,0-0.1c0.2-0.4,0.4-0.8,0.6-1.2l0,0
		c0.2-0.4,0.4-0.8,0.5-1.3l0,0c0.2-0.4,0.3-0.9,0.4-1.3l0,0l0,0c0.3-1.2,0.5-2.5,0.5-3.8V2c0,8.3-6.7,15-15,15
		c-1.8,0-3.6,0.3-5.2,0.9l0,0l0,0c-0.5,0.2-1,0.4-1.5,0.7h-0.1c-0.5,0.2-0.9,0.5-1.3,0.8c-0.1,0-0.1,0.1-0.2,0.1
		c-0.4,0.3-0.7,0.5-1.1,0.8c-0.1,0.1-0.2,0.1-0.3,0.2c-0.4,0.4-0.8,0.7-1.2,1.1l0,0l0,0c-0.4,0.4-0.7,0.8-1.1,1.3
		c-0.1,0.1-0.2,0.2-0.2,0.3c-0.3,0.4-0.5,0.8-0.7,1.1c-0.1,0.1-0.1,0.2-0.2,0.3C48.7,26.8,48,29.2,48,32v15
		C48.1,38.8,54.8,32.1,63.1,32.1z"/>
	<path class="st1" d="M88,24.6c-1,3.3-2.6,6.3-4.7,8.8c6.9,3.1,10.7,6.8,10.7,9.5c0,5.3-15.2,15-40,15s-40-9.7-40-15
		c0-4,8.5-10.4,23.3-13.4c0.4-3.8,1.6-7.5,3.5-10.7C19.6,21.8,4,31.5,4,43v25c0,27.6,22.4,50,50,50s50-22.4,50-50V43
		C103.9,35.7,97.8,29.2,88,24.6z"/>
</g>
</svg>
